<svg version="1.2" xmlns="http://www.w3.org/2000/svg" viewBox="0 0 74 74" width="74" height="74"><style></style><path  d="m65.2 13.8q-1-1.1-2-2.2c-6.6-6.8-15.9-11.1-26.2-11.1-10.3 0-19.6 4.3-26.2 11.1q-1 1.1-2 2.2c-5.2 6.3-8.3 14.4-8.3 23.2 0 8.8 3.1 16.9 8.3 23.2q1 1.1 2 2.2c6.6 6.8 15.9 11.1 26.2 11.1 10.3 0 19.6-4.3 26.2-11.1q1-1.1 2-2.2c5.2-6.3 8.3-14.4 8.3-23.2 0-8.8-3.1-16.9-8.3-23.2zm-17.7 55c3-2.9 5.5-6.8 7.4-11.6q3.3 1.4 5.9 3.3c-3.6 3.7-8.2 6.6-13.3 8.3zm-34.3-8.3q2.6-1.9 5.9-3.3c1.9 4.8 4.4 8.7 7.4 11.6-5.1-1.7-9.7-4.6-13.3-8.3zm13.3-55.3c-3 2.9-5.5 6.8-7.4 11.6q-3.3-1.4-5.9-3.3c3.6-3.7 8.2-6.6 13.3-8.3zm34.3 8.3q-2.6 1.9-5.9 3.3c-1.9-4.8-4.4-8.7-7.4-11.6 5.1 1.7 9.7 4.6 13.3 8.3zm-25.3 22h-17c0.2-5.3 1-10.3 2.3-14.8 4.5 1.7 9.4 2.6 14.7 2.8zm0 3v12c-5.3 0.2-10.2 1.1-14.7 2.7-1.3-4.4-2.1-9.4-2.3-14.7zm3 0h17c-0.1 5.3-1 10.3-2.3 14.7-4.5-1.6-9.4-2.5-14.7-2.7zm0-3v-12c5.3-0.2 10.2-1.1 14.7-2.8 1.3 4.5 2.2 9.5 2.3 14.8zm13.7-17.6c-4.1 1.5-8.8 2.4-13.7 2.6v-16.9c5.7 0.8 10.6 6.3 13.7 14.3zm-16.7 2.6c-4.9-0.2-9.6-1.1-13.7-2.6 3.1-8 8-13.5 13.7-14.3zm-13.7 35.6c4.1-1.5 8.8-2.4 13.7-2.5v16.8c-5.7-0.8-10.6-6.3-13.7-14.3zm16.7-2.5c4.9 0.1 9.6 1 13.7 2.5-3.1 8-8 13.5-13.7 14.3zm-20.4-33.8c-1.5 4.7-2.4 10.1-2.6 15.8h-12c0.4-7.5 3.2-14.4 7.7-19.8q3.1 2.3 6.9 4zm-2.6 18.8c0.2 5.7 1.1 11.1 2.6 15.8q-3.8 1.7-6.9 4c-4.5-5.4-7.3-12.3-7.7-19.8zm40.4 15.8c1.5-4.7 2.5-10.1 2.6-15.8h12c-0.4 7.5-3.2 14.4-7.6 19.8q-3.2-2.3-7-4zm2.6-18.8c-0.1-5.7-1.1-11.1-2.6-15.8q3.8-1.7 7-4c4.4 5.4 7.2 12.3 7.6 19.8z"/></svg>