<?xml version="1.0" encoding="UTF-8"?>
<svg width="24px" height="24px" viewBox="0 0 24 24" version="1.1" xmlns="http://www.w3.org/2000/svg" xmlns:xlink="http://www.w3.org/1999/xlink">
    <title>line/overview</title>
    <g id="line/overview" stroke="none" stroke-width="1" fill="none" fill-rule="evenodd">
        <path d="M11.716,1.25 C14.8341997,1.25 17.362,3.7778003 17.362,6.896 C17.362,8.83515501 16.3844028,10.54598 14.8951647,11.5625184 C18.188387,12.6699698 20.7457378,15.4568607 21.4748091,18.9773282 C21.5104841,19.1495923 21.5408478,19.3821318 21.5676022,19.6813831 L21.5676022,19.6813831 L21.5980841,20.0729182 C21.601918,20.129087 21.6038367,20.1853701 21.6038367,20.2416696 C21.6038367,21.6102474 20.4943808,22.7196696 19.1258187,22.7196696 L19.1258187,22.7196696 L4.22227717,22.7181956 L4.13692184,22.7137754 C2.77161508,22.6194383 1.74129066,21.4361631 1.83562834,20.0708568 C1.87090336,19.560334 1.9122462,19.190157 1.96452017,18.9422567 C2.703578,15.4374013 5.25533273,12.6658295 8.53715288,11.5611299 C7.04759723,10.54598 6.07,8.83515501 6.07,6.896 C6.07,3.7778003 8.5978003,1.25 11.716,1.25 Z M11.716,12.542 C7.6949082,12.542 4.25131794,15.367433 3.43224401,19.251751 C3.4077129,19.3680856 3.38283889,19.5612853 3.35939433,19.8247653 L3.35939433,19.8247653 L3.33206041,20.1742544 C3.29482786,20.7131041 3.70146916,21.180111 4.24031911,21.2173433 C4.26275736,21.2188937 4.28524241,21.2196696 4.30773416,21.2196696 L19.1258328,21.2196696 C19.665967,21.2196696 20.1038367,20.7818132 20.1038367,20.2416696 L20.1038367,20.2416696 L20.1032689,20.208349 L20.0754372,19.8366045 C20.0530418,19.5814149 20.0293209,19.39424 20.0059763,19.2815161 C19.1986009,15.3829411 15.7482569,12.542 11.716,12.542 Z M11.716,2.75 C9.42622743,2.75 7.57,4.60622743 7.57,6.896 C7.57,9.18577257 9.42622743,11.042 11.716,11.042 C14.0057726,11.042 15.862,9.18577257 15.862,6.896 C15.862,4.60622743 14.0057726,2.75 11.716,2.75 Z" id="Combined-Shape" fill="#8B93A7"></path>
    </g>
</svg>